# xmcd
#
# Track frame offsets:
#	151
#	13255
#	31115
#	46505
#	60627
#	74820
#	89397
#	105538
#	120609
#	131864
#	150825
#	163492
#	177633
#
# Disc length: 2540 seconds
#
# Revision: 1
# Processed by: cddbd v1.5.1PL0 Copyright (c) Steve Scherf et al.
# Submitted via: audiograbber 1.82.02
#
DISCID=b009ea0d
DTITLE=Melissa Bajrie - Believe In Me
DYEAR=1900
DGENRE=Country
TTITLE0=My Dad Was A Road Train Man
TTITLE1=When The Darkest Hours Pass
TTITLE2=Long Ago Shoes
TTITLE3=A Country Song
TTITLE4=I Found You
TTITLE5=Aussie All Over
TTITLE6=Grandpa
TTITLE7=Believe In Me
TTITLE8=When Will I Be Loved
TTITLE9=Long Before This Land Began To Grow
TTITLE10=Essendion, The Team Of 2000
TTITLE11=The G.S.T Song
TTITLE12=Essendion, The Team Of 2000 2
EXTD=
EXTT0=
EXTT1=
EXTT2=
EXTT3=
EXTT4=
EXTT5=
EXTT6=
EXTT7=
EXTT8=
EXTT9=
EXTT10=
EXTT11=
EXTT12=
PLAYORDER=
